<svg width="40" height="44" viewBox="0 0 40 44" fill="none" xmlns="http://www.w3.org/2000/svg">
<path d="M24.6163 9.96173C19.5186 9.96173 9.30742 5.50185 9.30742 0H9.23194C9.23194 4.40342 10.8527 8.62649 13.7378 11.7402C16.6228 14.854 20.5358 16.6033 24.6159 16.6035C27.064 16.6035 29.4119 17.6531 31.1431 19.5213C32.8742 21.3895 33.8467 23.9234 33.8467 26.5654C33.8473 29.2075 32.8752 31.7418 31.1444 33.6103C29.4136 35.4791 27.0659 36.529 24.6179 36.5296C22.1696 36.5301 19.8215 35.4809 18.0901 33.613C16.3586 31.7451 15.3856 29.2114 15.3852 26.5694C15.3851 24.3889 14.9871 22.2298 14.2139 20.2155C13.4407 18.2011 12.3074 16.3707 10.8788 14.829C9.45013 13.2872 7.75411 12.0643 5.88752 11.2299C4.02094 10.3956 2.02035 9.96621 0 9.96629V10.0471C5.09698 10.0471 9.22946 21.0626 9.23136 26.5652H9.2304C9.23038 29.8492 10.1326 33.0593 11.823 35.7897C13.5135 38.5202 15.9162 40.6484 18.7273 41.905C21.5385 43.1619 24.6317 43.4909 27.6161 42.8502C30.6004 42.2097 33.3417 40.6284 35.4934 38.3066C37.645 35.9846 39.1104 33.0263 39.7042 29.8054C40.2981 26.5847 39.9934 23.2464 38.8292 20.2124C37.665 17.1784 35.6932 14.5852 33.1634 12.7606C30.6334 10.936 27.659 9.96198 24.6163 9.96173Z" fill="url(#paint0_linear_14_32)"/>
<defs>
<linearGradient id="paint0_linear_14_32" x1="31.88" y1="37.3413" x2="6.27294" y2="4.75227" gradientUnits="userSpaceOnUse">
<stop offset="0.295" stop-color="#EB3949"/>
<stop offset="0.384" stop-color="#E73D58"/>
<stop offset="0.477" stop-color="#E74955"/>
<stop offset="0.571" stop-color="#E95E51"/>
<stop offset="0.666" stop-color="#EA7B4B"/>
<stop offset="0.761" stop-color="#EDA044"/>
<stop offset="0.857" stop-color="#EFCE3B"/>
<stop offset="0.868" stop-color="#F0D43A"/>
</linearGradient>
</defs>
</svg>
